<svg width="31" height="31" viewBox="0 0 31 31" fill="none" xmlns="http://www.w3.org/2000/svg">
<path d="M9.78157 0.76036C8.18111 0.828464 7.09144 1.08386 6.13798 1.45843C5.16749 1.85003 4.33321 2.36081 3.49893 3.19509C2.66465 4.02937 2.15387 4.86365 1.77929 5.85117C1.40472 6.80463 1.16635 7.8943 1.08122 9.49475C1.01312 11.0952 0.996094 11.606 0.996094 15.6752C1.01312 19.7445 1.03015 20.2553 1.09825 21.8557C1.16635 23.4562 1.42175 24.5458 1.79632 25.4823C2.18792 26.4698 2.6987 27.3041 3.53298 28.1383C4.36726 28.9726 5.20154 29.4834 6.18906 29.858C7.14252 30.2326 8.23219 30.4709 9.83264 30.5561C11.4331 30.6242 11.9439 30.6412 16.0131 30.6412C20.0824 30.6242 20.5931 30.6242 22.1936 30.539C23.7941 30.4709 24.8837 30.2155 25.8372 29.841C26.8247 29.4494 27.659 28.9386 28.4933 28.1043C29.3275 27.27 29.8383 26.4357 30.2129 25.4482C30.5875 24.4948 30.8258 23.4051 30.911 21.8046C30.9791 20.2042 30.9961 19.6934 30.9961 15.6242C30.9791 11.5549 30.9791 11.0441 30.8939 9.44367C30.8258 7.84322 30.5704 6.75355 30.1959 5.80009C29.8043 4.81257 29.2935 3.97829 28.4592 3.14402C27.6249 2.30974 26.7906 1.79895 25.8031 1.42438C24.8497 1.0498 23.76 0.811438 22.1595 0.726307C20.5421 0.675229 20.0313 0.658203 15.962 0.658203C11.8928 0.675229 11.382 0.692255 9.78157 0.76036ZM9.95183 27.8489C8.48758 27.7808 7.70438 27.5424 7.17657 27.3381C6.4785 27.0657 5.98474 26.7422 5.45693 26.2144C4.92912 25.6866 4.60563 25.1928 4.33321 24.4948C4.1289 23.9669 3.87351 23.1667 3.8054 21.7195C3.7373 20.1361 3.72027 19.6593 3.70324 15.6582C3.70324 11.6571 3.70324 11.1803 3.77135 9.59691C3.83945 8.13266 4.07782 7.34946 4.28213 6.82165C4.55455 6.12358 4.87805 5.62983 5.40586 5.10202C5.93367 4.57421 6.42742 4.25071 7.12549 3.97829C7.6533 3.77398 8.45353 3.53562 9.90075 3.45048C11.4842 3.38238 11.9609 3.36535 15.945 3.34833C19.9462 3.34833 20.4229 3.34833 22.0063 3.41643C23.4706 3.48454 24.2538 3.7229 24.7816 3.92722C25.4796 4.19963 25.9904 4.52313 26.5012 5.05094C27.029 5.57875 27.3525 6.07251 27.6249 6.77058C27.8292 7.29839 28.0676 8.09861 28.1527 9.54583C28.2208 11.1293 28.2379 11.606 28.2549 15.5901C28.2719 19.5912 28.2549 20.068 28.1868 21.6514C28.1187 23.1156 27.8803 23.8988 27.676 24.4437C27.4036 25.1417 27.0801 25.6355 26.5523 26.1633C26.0245 26.6911 25.5307 27.0146 24.8326 27.287C24.3048 27.4913 23.5046 27.7297 22.0574 27.8148C20.474 27.883 19.9972 27.9 15.9961 27.917C12.012 27.934 11.5353 27.917 9.95183 27.8489ZM22.1766 7.63891C22.1766 8.62642 22.9938 9.42665 23.9813 9.42665C24.9689 9.42665 25.7861 8.6094 25.7691 7.62188C25.7691 6.63437 24.9518 5.83414 23.9643 5.83414C22.9768 5.83414 22.1766 6.65139 22.1766 7.63891ZM8.30029 15.6582C8.30029 19.9147 11.7566 23.337 16.0131 23.337C20.2526 23.32 23.6919 19.8807 23.6919 15.6242C23.6749 11.3847 20.2356 7.92835 15.9791 7.94538C11.7225 7.9624 8.28327 11.4187 8.30029 15.6582ZM10.9904 15.6582C10.9904 12.9 13.2208 10.6696 15.9791 10.6525C18.7373 10.6525 20.9847 12.8829 20.9847 15.6412C20.9847 18.3994 18.7543 20.6469 15.9961 20.6469C13.2379 20.6469 11.0074 18.4164 10.9904 15.6582Z" fill="#999999"/>
</svg>
