<svg width="31" height="31" viewBox="0 0 31 31" fill="none" xmlns="http://www.w3.org/2000/svg">
<path d="M16 1C7.71552 1 1 6.77558 1 13.9004C1 18.5381 3.84567 22.6018 8.11572 24.8758C7.80178 26.1506 6.97963 29.4924 6.81489 30.2076C6.61207 31.0952 7.11407 31.0834 7.44277 30.8442C7.70076 30.6573 11.5535 27.8084 13.2157 26.5784C14.1179 26.7238 15.048 26.8007 16 26.8007C24.2844 26.8007 30.9999 21.0243 30.9999 13.9004C30.9999 6.77558 24.2844 1 16 1Z" fill="white"/>
<path d="M9.95976 9.75879H5.57314C5.16052 9.75879 4.82715 10.1223 4.82715 10.5704C4.82715 11.0184 5.16129 11.3819 5.57314 11.3819H6.99909V17.0983C6.99909 17.3063 7.07679 17.5109 7.21356 17.6588C7.34722 17.8059 7.53449 17.8905 7.72643 17.8905H7.88573C8.07689 17.8905 8.26339 17.8059 8.39783 17.6588C8.5346 17.5109 8.6123 17.3072 8.6123 17.0983V11.3819H9.95898C10.3716 11.3819 10.7058 11.0184 10.7058 10.5704C10.7065 10.1223 10.3724 9.75879 9.95976 9.75879Z" fill="#DFD2BF"/>
<path d="M20.5014 16.364H18.4615V10.5259C18.4615 10.039 18.0995 9.64502 17.6527 9.64502C17.2059 9.64502 16.8438 10.039 16.8438 10.5259V16.8188C16.8438 16.8679 16.8491 16.9135 16.8561 16.96C16.8483 17.0057 16.8438 17.053 16.8438 17.1004C16.8438 17.5078 17.1459 17.8375 17.5205 17.8375H20.5014C20.8767 17.8375 21.1783 17.5078 21.1783 17.1004C21.1783 16.6946 20.8759 16.364 20.5014 16.364Z" fill="#DFD2BF"/>
<path d="M27.0196 16.632L24.7467 13.3841L26.8005 11.1489C27.0787 10.8471 27.0787 10.356 26.8005 10.0533C26.5223 9.75069 26.0716 9.75069 25.7926 10.0533L23.25 12.8194V10.5259C23.25 10.039 22.8879 9.64502 22.4411 9.64502C21.9942 9.64502 21.6313 10.039 21.6313 10.5259V17.0124C21.6313 17.4994 21.9935 17.8933 22.4411 17.8933C22.8879 17.8933 23.25 17.5002 23.25 17.0124V15.0114L23.7124 14.5093L25.8625 17.5788C26.1019 17.9263 26.5565 17.9981 26.8759 17.7352C27.1952 17.474 27.2597 16.9795 27.0196 16.632Z" fill="#DFD2BF"/>
<path d="M16.2374 16.8424L14.0514 10.3364C14.0514 10.3364 14.046 10.3313 14.0445 10.3288C13.9046 9.93231 13.5013 9.64404 13.0203 9.64404C12.4864 9.64404 12.045 9.9991 11.9572 10.4632C11.9425 10.4979 11.9277 10.5325 11.9153 10.5697L9.76585 16.8424C9.63297 17.2541 9.8319 17.7038 10.2088 17.8484C10.5864 17.9929 11.0006 17.7765 11.1335 17.3657L11.5057 16.2109H14.4975L14.8689 17.3657C15.0018 17.7765 15.416 17.9929 15.7937 17.8484C16.1705 17.7047 16.3695 17.2541 16.2374 16.8424ZM11.9797 14.7366L12.9853 11.6154C12.9969 11.6154 13.0063 11.6188 13.0179 11.6188L14.0227 14.7366H11.9797Z" fill="#DFD2BF"/>
</svg>
