<svg width="31" height="31" viewBox="0 0 31 31" fill="none" xmlns="http://www.w3.org/2000/svg">
<path d="M15.9961 0.658203C7.71161 0.658203 0.996094 6.43378 0.996094 13.5586C0.996094 18.1963 3.84176 22.26 8.11181 24.534C7.79787 25.8088 6.97572 29.1506 6.81098 29.8658C6.60816 30.7534 7.11016 30.7416 7.43886 30.5024C7.69685 30.3155 11.5496 27.4666 13.2118 26.2366C14.114 26.382 15.0441 26.4589 15.9961 26.4589C24.2805 26.4589 30.996 20.6825 30.996 13.5586C30.996 6.43378 24.2805 0.658203 15.9961 0.658203Z" fill="#999999"/>
<path d="M9.95976 9.75903H5.57314C5.16052 9.75903 4.82715 10.1225 4.82715 10.5706C4.82715 11.0186 5.16129 11.3821 5.57314 11.3821H6.99909V17.0985C6.99909 17.3065 7.07679 17.5111 7.21356 17.659C7.34722 17.8061 7.53449 17.8907 7.72643 17.8907H7.88573C8.07689 17.8907 8.26339 17.8061 8.39783 17.659C8.5346 17.5111 8.6123 17.3074 8.6123 17.0985V11.3821H9.95898C10.3716 11.3821 10.7058 11.0186 10.7058 10.5706C10.7065 10.1225 10.3724 9.75903 9.95976 9.75903Z" fill="white"/>
<path d="M20.5015 16.364H18.4616V10.5259C18.4616 10.039 18.0995 9.64502 17.6527 9.64502C17.2059 9.64502 16.8438 10.039 16.8438 10.5259V16.8188C16.8438 16.8679 16.8492 16.9135 16.8562 16.96C16.8484 17.0057 16.8438 17.053 16.8438 17.1004C16.8438 17.5078 17.146 17.8375 17.5206 17.8375H20.5015C20.8768 17.8375 21.1783 17.5078 21.1783 17.1004C21.1783 16.6946 20.876 16.364 20.5015 16.364Z" fill="white"/>
<path d="M27.0196 16.632L24.7467 13.3841L26.8005 11.1489C27.0787 10.8471 27.0787 10.356 26.8005 10.0533C26.5223 9.75069 26.0716 9.75069 25.7926 10.0533L23.25 12.8194V10.5259C23.25 10.039 22.8879 9.64502 22.4411 9.64502C21.9942 9.64502 21.6313 10.039 21.6313 10.5259V17.0124C21.6313 17.4994 21.9935 17.8933 22.4411 17.8933C22.8879 17.8933 23.25 17.5002 23.25 17.0124V15.0114L23.7124 14.5093L25.8625 17.5788C26.1019 17.9263 26.5565 17.9981 26.8759 17.7352C27.1952 17.474 27.2597 16.9795 27.0196 16.632Z" fill="white"/>
<path d="M16.2374 16.8424L14.0514 10.3364C14.0514 10.3364 14.046 10.3313 14.0445 10.3288C13.9046 9.93231 13.5013 9.64404 13.0203 9.64404C12.4864 9.64404 12.045 9.9991 11.9572 10.4632C11.9425 10.4979 11.9277 10.5325 11.9153 10.5697L9.76585 16.8424C9.63297 17.2541 9.8319 17.7038 10.2088 17.8484C10.5864 17.9929 11.0006 17.7765 11.1335 17.3657L11.5057 16.2109H14.4975L14.8689 17.3657C15.0018 17.7765 15.416 17.9929 15.7937 17.8484C16.1705 17.7047 16.3695 17.2541 16.2374 16.8424ZM11.9797 14.7366L12.9853 11.6154C12.9969 11.6154 13.0063 11.6188 13.0179 11.6188L14.0227 14.7366H11.9797V14.7366Z" fill="white"/>
</svg>
