<svg width="200" height="24" viewBox="0 0 200 24" fill="none" xmlns="http://www.w3.org/2000/svg">
<path d="M0.73 23V0.769998H5.17V10.43H5.26L12.61 0.769998H17.5L10.72 9.53L18.7 23H13.84L8.08 13.01L5.17 16.76V23H0.73ZM18.4837 15.98V12.83H26.6737V15.98H18.4837ZM30.8472 23V0.769998H44.5272V4.49H35.2872V10.28H43.1772V14H35.2872V23H30.8472ZM56.916 23.42C51.516 23.42 48.276 20.39 48.276 13.01V0.769998H52.716V13.4C52.716 18.02 54.336 19.58 56.916 19.58C59.556 19.58 61.236 18.02 61.236 13.4V0.769998H65.496V13.01C65.496 20.39 62.346 23.42 56.916 23.42ZM70.8374 23V0.769998H78.5774C83.2274 0.769998 86.9174 2.42 86.9174 7.52C86.9174 10.85 85.2374 12.92 82.6874 13.91L87.8774 23H82.9274L78.3674 14.6H75.2774V23H70.8374ZM75.2774 11.09H78.1574C81.0074 11.09 82.5974 9.89 82.5974 7.52C82.5974 5.12 81.0074 4.31 78.1574 4.31H75.2774V11.09ZM91.2866 23V0.769998H95.8166L102.267 12.62L104.487 17.42H104.637C104.427 15.11 104.067 12.17 104.067 9.65V0.769998H108.267V23H103.767L97.3466 11.12L95.0966 6.35H94.9466C95.1566 8.75 95.4866 11.54 95.4866 14.09V23H91.2866ZM113.757 23V0.769998H118.197V23H113.757ZM128.07 23V4.49H121.83V0.769998H138.81V4.49H132.51V23H128.07ZM150.93 23.42C145.53 23.42 142.29 20.39 142.29 13.01V0.769998H146.73V13.4C146.73 18.02 148.35 19.58 150.93 19.58C153.57 19.58 155.25 18.02 155.25 13.4V0.769998H159.51V13.01C159.51 20.39 156.36 23.42 150.93 23.42ZM164.851 23V0.769998H172.591C177.241 0.769998 180.931 2.42 180.931 7.52C180.931 10.85 179.251 12.92 176.701 13.91L181.891 23H176.941L172.381 14.6H169.291V23H164.851ZM169.291 11.09H172.171C175.021 11.09 176.611 9.89 176.611 7.52C176.611 5.12 175.021 4.31 172.171 4.31H169.291V11.09ZM185.3 23V0.769998H198.92V4.49H189.74V9.62H197.54V13.34H189.74V19.28H199.25V23H185.3Z" fill="#1D1D1D"/>
</svg>
