<svg width="33" height="31" viewBox="0 0 33 31" fill="none" xmlns="http://www.w3.org/2000/svg">
<path d="M7.72772 11.7209C7.1135 11.7209 6.61572 12.2187 6.61572 12.8329C6.61572 13.4472 7.1135 13.9472 7.72772 13.9472C8.34195 13.9472 8.84201 13.4495 8.84201 12.8329C8.84201 12.2187 8.34195 11.7209 7.72772 11.7209Z" fill="#999999"/>
<path d="M18.7222 11.6045C18.06 11.6045 17.5234 12.1411 17.5234 12.8033C17.5234 13.4654 18.06 14.002 18.7222 14.002C19.3844 14.002 19.921 13.4654 19.921 12.8033C19.921 12.1411 19.3844 11.6045 18.7222 11.6045Z" fill="#999999"/>
<path d="M28.6753 0.658203H4.99902C2.61061 0.658203 0.674316 2.5945 0.674316 4.9829V19.0348C0.674316 21.4232 2.61061 23.3595 4.99902 23.3595H13.3607L16.2058 30.0611C16.2058 30.0611 16.4022 30.6411 16.8748 30.6411C17.3498 30.6411 17.5438 30.0611 17.5438 30.0611L20.3889 23.3595H28.6753C31.0637 23.3595 33 21.4232 33 19.0348V4.9829C32.9977 2.59222 31.0637 0.658203 28.6753 0.658203ZM10.8284 13.0774C10.8147 15.6462 8.15919 15.7193 8.15919 15.7193C7.13168 15.7193 6.5517 15.0389 6.5517 15.0389V15.5024H4.6177V7.52658C4.61085 7.5243 4.60856 7.52429 4.6177 7.52201V7.52658C4.73872 7.54485 6.5517 7.52201 6.5517 7.52201V10.5726C7.00609 9.79625 8.32131 9.80995 8.32131 9.80995C11.1869 10.0771 10.8284 13.0774 10.8284 13.0774ZM14.2352 10.0543V15.5161H12.3423V10.1091C12.3423 9.37382 11.429 9.16831 11.429 9.16831V7.26171C14.4522 7.38501 14.2352 10.0543 14.2352 10.0543ZM18.7221 15.7239C16.9684 15.7239 15.5482 14.4155 15.5482 12.8034C15.5482 11.1891 16.9684 9.88301 18.7221 9.88301C20.4757 9.88301 21.8959 11.1914 21.8959 12.8034C21.8959 14.4155 20.4757 15.7239 18.7221 15.7239ZM29.0931 15.7239C29.0931 15.7239 29.1205 18.4982 26.3006 18.4982H25.442V16.7012H25.9603C25.9603 16.7012 27.1454 16.8107 27.1317 14.9841C27.1317 14.9841 26.9011 15.7239 25.2388 15.7239C25.2388 15.7239 22.8824 15.5549 22.8824 13.2555V12.3833C22.8824 12.3833 22.9372 9.99947 25.5242 9.80995C25.5242 9.80995 26.5449 9.70034 27.1728 10.5452V9.96064H29.0931V15.7239Z" fill="#999999"/>
<path d="M26.0835 11.6321C25.4373 11.6321 24.9121 12.1573 24.9121 12.8034C24.9121 13.4496 25.4373 13.9748 26.0835 13.9748C26.7297 13.9748 27.2548 13.4496 27.2548 12.8034C27.2548 12.155 26.7297 11.6321 26.0835 11.6321Z" fill="#999999"/>
</svg>
